<?xml version="1.0" encoding="utf-8"?>
<!-- Generator: Adobe Illustrator 23.0.1, SVG Export Plug-In . SVG Version: 6.00 Build 0)  -->
<svg version="1.1" id="Layer_1" xmlns="http://www.w3.org/2000/svg" xmlns:xlink="http://www.w3.org/1999/xlink" x="0px" y="0px"
	 viewBox="0 0 3480 1328.5" style="enable-background:new 0 0 3480 1328.5;" xml:space="preserve">
<style type="text/css">
	.st0{fill:none;stroke:#B75858;stroke-width:41.25;stroke-linejoin:round;stroke-miterlimit:10;}
</style>
<g id="XMLID_1_">
	<g>
		<path class="st0" d="M92,687.5h357.9l63.6-178.7l149.7,770.7l129.1-1228l89.6,754.7l91.3-116l552.9-0.5
			c-220.6-154.4-376.6-310.6-330.5-464.2c33.4-111.6,139.5-168.8,263-175.1c8.5-0.4,16.9-0.7,25.2-0.7
			c124.2,0,209.3,49.1,259.3,124.9c47.8-72.6,131.3-125.7,248.7-125.7c11.1,0,22.6,0.5,34.3,1.5c135.1,11.3,233.2,71,264.5,165.2
			c49.2,148.5-97.8,315.2-324.6,474.4l593.8,1.5l84.3,118.7l94.6-738.7l125.6,1196l149.7-752l62,170.7H3396"/>
	</g>
</g>
<path class="st0" d="M1740,876l225.9-186L1740,876z"/>
<line class="st0" x1="1526.1" y1="689.7" x2="1740" y2="876"/>
</svg>
