<svg id="Capa_1" xmlns="http://www.w3.org/2000/svg" viewBox="0 0 385.8 385.8"><style>.st0{fill:#d43d21}.st1{fill:none}</style><g id="Layer_2_23_"><path class="st0" d="M182.2 125.8c-.4.1-.8.1-1.2.1v66.6c8.9 1.6 18.8.2 25.8-.8v-65.5c-.7-.1-1.5-.2-2.2-.5-9.1-2.8-10.4-1.7-22.4.1zM194.1 0c-16.1 0-29.2 13.1-29.2 29.2 0 11.4 6.6 21.3 16.1 26.1v4h25.8v-3.8c9.7-4.7 16.4-14.7 16.4-26.3.1-16.1-13-29.2-29.1-29.2z"/><path class="st1" d="M216.9 264.5c6.5-5.5 9.9-11.3 9.9-16.8 0-5.2 1.4-15.7-20-25.3v49.2c3.4-1.9 6.9-4.4 10.1-7.1zM157.8 246.6c0 5.8 3.1 12.6 9.9 17.8 5.3 4.1 8.4 5.3 13.4 8.4v-51.9c-24.9 9.8-23.3 20.1-23.3 25.7z"/><path class="st0" d="M181 219.9v53.9c10.1 6.1 19 2.2 23.1.2.9-.4 1.8-.9 2.7-1.5v-51.2c-1.1-.5-2.2-1-3.4-1.5v.1c-7.2-3.3-11.5-2.6-20.5-.8-.6.3-1.3.6-1.9.8zM181 310.7v56.6c0 7.2 5.8 12.9 12.9 12.9s12.9-5.8 12.9-12.9V313c-1.4-1.1-3-2.2-4.6-3.3-7-3.9-14.2-3.8-21.2 1z"/><linearGradient id="SVGID_1_" gradientUnits="userSpaceOnUse" x1="60.604" y1="161.571" x2="223.942" y2="255.875"><stop offset="0" stop-color="#54b1e1"/><stop offset=".052" stop-color="#4daee0" stop-opacity=".99"/><stop offset=".245" stop-color="#36a3dc" stop-opacity=".951"/><stop offset=".455" stop-color="#269cd9" stop-opacity=".909"/><stop offset=".689" stop-color="#1c97d8" stop-opacity=".862"/><stop offset="1" stop-color="#1996d7" stop-opacity=".8"/></linearGradient><path d="M203.4 221c1.2.4 2.3.9 3.4 1.4 21.4 9.5 20 20 20 25.3 0 5.5-3.4 11.3-9.9 16.8-3.3 2.8-6.7 5.2-10.1 7.1l-2.7 1.5c-4.1 2-13 5.9-23.1-.2-4.9-3.1-8.1-4.3-13.4-8.4-6.8-5.2-9.9-12-9.9-17.8 0-5.6-1.6-15.9 23.2-25.7.6-.2 1.3-.5 1.9-.7 9.1-1.9 13.4-2.6 20.6.7zM181 191.5c-.6-.1-1.2-.2-1.7-.3-9.9-2.3-19.6-4.3-40.4-10-19.9-5.3-41.8-13.8-45-18.1.3-.3.6-.5 1.3-.8 1.7-1 4.9-1.9 8.4-2.6 7.4-1.5 17.3-2.3 27.3-2.8 19.9-.6 21.4.4 23.8.3 2.4-.1 14.4-.3 14.8-9.5.4-9.2-6.2-9.9-11.3-10.9-8.1-1.1-4.7-.8-15.7-.6-18.3 1.4-74.1-3.1-81.1 26.2 0 .9-.1 1.4-.3 2.1 2.4 25.6 55.5 36.8 93.9 44.4-13 8.9-20 20.5-22.8 35.7-1.4 16 11.4 31.3 41 48.2-22.5 15.9-37.3 30.9-36 48.9 1.8 13.4 12.9 31 34.1 43.3 2.1 1.2 5.1 1.1 3-2.6-5.3-8.9-14.5-25.6-15.3-36.2-1.1-7.7 2.6-18.5 18.2-31.5 1.3-1.2 2.6-2.3 3.9-3.2 7-4.8 14.2-4.9 21.3-1 1.6 1 3.1 2.1 4.6 3.3 14.1 11 19.8 24.8 18.8 32.4-.8 10.5-9.8 27.2-15.2 36-1.8 3 .1 4.5 2.9 2.7 20.9-12.8 32.2-29.9 34-43.3 1.3-18-13.5-33-35.9-48.9 29.5-17 42.3-32.2 40.9-48.2-2.7-15-9.8-26.6-22.8-35.7 38.4-7.6 91.5-18.8 93.9-44.4-.1-.8-.3-1.3-.3-2.1-7-29.4-62.9-24.9-81.1-26.2-11-.1-9.6-.2-14.8-.2-5.2 0-11.8 2.7-12 10.9-.2 8.2 9.3 10.3 14.6 10.2 3.1-.1 3.9-.9 23.8-.1 10 .4 19.9 1.1 27.1 2.6 3.6.8 6.6 1.6 8.5 2.6.5.3 1 .5 1.3.8-3.3 4.3-25.1 12.9-45 18.1-18.2 5.1-33.4 8.5-37.4 9.3-.5.1-.9.1-1.4.2-7.1 1.2-17 2.6-25.9 1z" fill="url(#SVGID_1_)"/><linearGradient id="SVGID_2_" gradientUnits="userSpaceOnUse" x1="192.893" y1="24.445" x2="192.893" y2="180.5"><stop offset="0" stop-color="#47abdf"/><stop offset=".11" stop-color="#36a3dc" stop-opacity=".967"/><stop offset=".264" stop-color="#269cd9" stop-opacity=".92"/><stop offset=".435" stop-color="#1c97d8" stop-opacity=".868"/><stop offset=".659" stop-color="#1996d7" stop-opacity=".8"/></linearGradient><path d="M363.6 90.8c-48.1-8.9-86.1-52.6-96.8-61.3-12.1-9.9-20.5-7.6-32.6 14.1-7.6 13.5-19.4 15.8-27.3 15.7h-25.8c-7.9.3-20.3-1.7-28.1-15.6-12.1-21.7-20.6-24-32.6-14.1-10.8 8.8-49.9 53.3-99.1 61.6-13.6 2.3-16.1 8.8-7.3 15 6.9 4.9 16.9 8.5 30.8 6 0 0 16.9 17.5 44.3 5.3 0 0 14.3 12.9 37 1.1 0 0 16.8 12.9 34.8 1.8 0 0 8.8 6.8 20.2 5.6.4 0 .8-.1 1.2-.1 12-1.8 13.3-2.8 22.5 0 .7.2 1.4.4 2.2.5 8.9 1.1 19.4-6 19.4-6 17.9 11.1 34.8-1.8 34.8-1.8 22.8 11.8 36.9-1.1 36.9-1.1 27.5 12.3 44.4-5.3 44.4-5.3 11.5 2.1 20.4-.1 27-3.6 11.4-6.3 10.2-14.8-5.9-17.8z" fill="url(#SVGID_2_)"/></g></svg>